<svg xmlns="http://www.w3.org/2000/svg" width="24" height="24" viewBox="0 0 24 24" fill="none" stroke="currentColor" stroke-width="2" stroke-linecap="round" stroke-linejoin="round">
  <path d="M17 5c0-1.7-1.3-3-3-3s-3 1.3-3 3c0 .8.3 1.5.8 2H9c-1.7 0-3 1.3-3 3v1c0 1.7 1.3 3 3 3h1v3c0 1.7 1.3 3 3 3s3-1.3 3-3v-3h1c1.7 0 3-1.3 3-3V9c0-1.7-1.3-3-3-3h-2.8c.5-.5.8-1.2.8-2z"/>
  <path d="M12 2v3"/>
  <path d="M12 17v3"/>
  <path d="M3 12h3"/>
  <path d="M18 12h3"/>
  <circle cx="12" cy="12" r="3" fill="none"/>
  <circle cx="12" cy="12" r="1" fill="currentColor"/>
  <path d="M8.5 8.5l7 7"/>
  <path d="M15.5 8.5l-7 7"/>
  <circle cx="6" cy="6" r="2" fill="currentColor" opacity="0.3"/>
  <circle cx="18" cy="6" r="2" fill="currentColor" opacity="0.3"/>
  <circle cx="6" cy="18" r="2" fill="currentColor" opacity="0.3"/>
  <circle cx="18" cy="18" r="2" fill="currentColor" opacity="0.3"/>
</svg>