<svg xmlns="http://www.w3.org/2000/svg" data-name="Layer 1" viewBox="0 0 128 160" x="0px" y="0px"><title>164 Web Icon Set 108 expanded</title><path d="M86.03809,84.43945l-.85254.18848C73.49219,87.24414,67.9541,91.10645,68.72461,96.10645a6.25431,6.25431,0,0,0,6.373,5.335q.09375,0,.18164-.00293A2.00028,2.00028,0,0,0,76.78711,98.208c-.13379-.1709-.02832-.76855.35352-1.18164a7.35487,7.35487,0,0,1,2.84473-1.51074,119.26241,119.26241,0,0,1,13.0791-3.89355q.813-.19189,1.63086-.37793a44.79668,44.79668,0,0,0,9.58887-2.97461c4.9043-2.36035,7.918-5.7002,8.4873-9.4043.44824-2.91992-.32324-7.03418-6.543-10.0459a25.50635,25.50635,0,0,0-7.4502-2.24121c-8.22461-1.19824-9.61719-3.88184-9.91113-6.085a31.55214,31.55214,0,0,0-1.9873-8.51562,19.416,19.416,0,0,0-9.999-9.76074c-10.99316-4.85742-23.165-.36816-23.74609-.14648-5.3371,2.24176-8.36572.53186-8.77374.27356a6.68218,6.68218,0,0,0-.77216-4.15149,3.55446,3.55446,0,0,0-4.78809-1.30078A7.347,7.347,0,0,0,36.156,39.67l-.9895-.02643c-.02783-.38281-.06934-.71191-.11133-.97656a3.84649,3.84649,0,0,0-2.03467-2.85547,3.07308,3.07308,0,0,0-3.01172.04c-1.38525.80957-1.999,2.68164-2.27051,4.23926-5.64014.64453-11.45312,4.55762-11.72412,4.74219a1.99847,1.99847,0,0,0-.86523,1.458c-.21277,2.16272.4823,6.44189,4.35406,8.26093l.5473,4.68927a2,2,0,0,0,1.98389,1.76855,1.903,1.903,0,0,0,.23438-.01367,1.99912,1.99912,0,0,0,1.75439-2.21777l-.33331-2.85571c.31763.09967.647.2063.98444.31677l1.13647,3.40417A2.00115,2.00115,0,0,0,27.707,61.01074a2.0214,2.0214,0,0,0,.63379-.10352A2.00079,2.00079,0,0,0,29.60449,58.376l-.1037-.31067c4.32513,1.90491,8.696,4.73328,10.216,9.0177a8.38533,8.38533,0,0,1,.40234,3.13379c-1.88818-.03418-4.80957.2334-6.56787,2.00684a5.20688,5.20688,0,0,0-1.353,4.68652,1.99948,1.99948,0,0,0,1.97656,1.69531H44.66455a2.00951,2.00951,0,0,0,1.583-.77832,15.83855,15.83855,0,0,1,1.793-1.8584A9.43578,9.43578,0,0,1,57.202,74.10492a8.36251,8.36251,0,0,0-.36407,4.3902,2.00047,2.00047,0,0,0,1.96289,1.61621H72.46289a1.99712,1.99712,0,0,0,1.40527-.57715c2.03418-2.00977,3.5293-1.55762,5.41992-.98535.374.11328.72949.21973,1.0625.2998,5.90161,1.41968,9.96-2.37585,11.54993-4.24683,4.74457.38947,9.40094,1.533,10.18835,2.54077.0332.05078.06836.10059.10645.14844.41113.52148.33691.72754.30566.81543C102.02051,79.44922,98.77441,81.6377,86.03809,84.43945Zm19.36816-9.53516c-2.373-3.4209-11.54883-4.209-14.30859-4.37012-.03375-.00165-.06555.00488-.099.00482-.03326-.00024-.06592.00348-.09906.00488a2.04046,2.04046,0,0,0-.28271.02863c-.03625.00671-.07117.01813-.10706.02679a2.01322,2.01322,0,0,0-.26044.07806c-.03754.01471-.07263.03448-.10925.05139a2.00774,2.00774,0,0,0-.23.12054c-.038.024-.07257.0531-.10907.07977a1.9971,1.9971,0,0,0-.19452.1568c-.0343.03241-.0647.06927-.097.10449a1.9723,1.9723,0,0,0-.15894.19153c-.01019.01434-.02332.02527-.0332.04-.12891.19238-3.23633,4.69043-8.03027,3.53809-.26367-.06348-.54492-.15039-.84082-.23926-1.999-.60547-5.26758-1.5918-8.76172,1.39063H60.75391a1.46951,1.46951,0,0,1,.24121-.65234c.03564-.04492.13037-.16309.55029-.17285,3.54639-.07812,9.146,0,9.20166.001a2.00234,2.00234,0,0,0,1.28516-3.55664c-.25781-.21-6.2666-5.21191-2.249-11.66406a2.00013,2.00013,0,0,0-3.39648-2.11328A12.03979,12.03979,0,0,0,66.39258,71.251c-1.63477-.00488-3.44531.00293-4.939.03711a5.704,5.704,0,0,0-.60376.04834c-.02814-.01715-.05151-.03925-.08081-.05518a13.49573,13.49573,0,0,0-15.38623,1.69824,21.523,21.523,0,0,0-1.64062,1.626H37.1123a9.76219,9.76219,0,0,1,4.18066-.29785,2.0022,2.0022,0,0,0,2.07031-1.07324c1.61182-3.1709.27148-7.08105.11816-7.50293-2.43347-6.85968-9.788-10.52771-15.6394-12.6347L27.147,51.01465a1.99533,1.99533,0,0,0-3.8891.59235l-.07452-.02258-.10571-.9057a1.99,1.99,0,0,0-3.38525-1.18622,4.95272,4.95272,0,0,1-.55225-1.91144c2.28662-1.3877,6.854-3.65527,10.33691-3.57617a1.99783,1.99783,0,0,0,1.96631-1.39355,1.93893,1.93893,0,0,0,.23145.31543,1.9985,1.9985,0,0,0,1.43506.66309l1.53027.04071a1.99522,1.99522,0,0,0,3.92822.65558,8.46523,8.46523,0,0,1,1.76514-3.584c.33545,1.24121-.24658,3.07813-1.65771,5.16016a2.00015,2.00015,0,0,0,3.31152,2.24414,18.06674,18.06674,0,0,0,1.13782-1.91559c1.87817.858,5.86951,1.95667,11.48816-.40472.11035-.041,11.17773-4.09668,20.65039.08887a15.431,15.431,0,0,1,7.96289,7.73145,29.27957,29.27957,0,0,1,1.67578,7.416c.9248,6.9248,8.0332,8.74707,13.2998,9.51465a21.49694,21.49694,0,0,1,6.2832,1.88184c4.3623,2.1123,4.56152,4.34473,4.333,5.83984-.48926,3.18457-4.1377,5.38086-6.26855,6.40723a41.284,41.284,0,0,1-8.748,2.67969q-.83057.19043-1.65723.38379A123.315,123.315,0,0,0,78.626,91.75391a10.63008,10.63008,0,0,0-4.4248,2.55957,5.55145,5.55145,0,0,0-1.21289,2.07422,2.40821,2.40821,0,0,1-.31055-.89062c-.27246-1.77148,3.06738-4.6582,13.38086-6.96484l.83984-.18555c9.126-2.00879,17.78809-4.47559,19.36914-8.89258A4.63291,4.63291,0,0,0,105.40625,74.9043Z"/><ellipse cx="27.70732" cy="47.77325" rx="1.51218" ry="1.4762"/><path d="M62,2V14a2,2,0,0,0,4,0V2a2,2,0,0,0-4,0Z"/><path d="M62,114v12a2,2,0,0,0,4,0V114a2,2,0,0,0-4,0Z"/><path d="M14,66a2,2,0,0,0,0-4H2a2,2,0,0,0,0,4Z"/><path d="M70,7.31787v4.03131A53.08842,53.08842,0,0,1,116.6485,58H120.676A57.09865,57.09865,0,0,0,70,7.31787Z"/><path d="M114,62a2,2,0,0,0,0,4h12a2,2,0,0,0,0-4Z"/><path d="M11.35156,58A53.08876,53.08876,0,0,1,58,11.34918V7.31787A57.09865,57.09865,0,0,0,7.324,58Z"/><path d="M11.34918,70H7.31787A57.09865,57.09865,0,0,0,58,120.676V116.6485A53.08871,53.08871,0,0,1,11.34918,70Z"/><path d="M120.68213,70h-4.03131A53.08842,53.08842,0,0,1,70,116.6485V120.676A57.09865,57.09865,0,0,0,120.68213,70Z"/><text x="0" y="143" fill="#000000" font-size="5px" font-weight="bold" font-family="'Helvetica Neue', Helvetica, Arial-Unicode, Arial, Sans-serif">Created by Creative Mahira</text><text x="0" y="148" fill="#000000" font-size="5px" font-weight="bold" font-family="'Helvetica Neue', Helvetica, Arial-Unicode, Arial, Sans-serif">from the Noun Project</text></svg>