<svg xmlns="http://www.w3.org/2000/svg" version="1.1" viewBox="-5.0 -10.0 110.0 135.0">
 <path d="m74.109 27.621h8.3555c2.4141 0.011718 4.3828-1.9219 4.3242-4.2578 0.035157-3.3047-4.3047-5.0781-6.6914-2.8086l2.0938 2.3203c1.5625-0.98047 2.1562 1.5469 0.27344 1.6172h-8.3555c-2.0508 0.03125-2.0586 3.0898 0 3.125z"/>
 <path d="m12.535 24.027h8.3555c2.4141 0.011718 4.3828-1.918 4.3242-4.2578 0.035156-3.3047-4.3047-5.0742-6.6914-2.8086l2.0938 2.3203c1.5664-0.98047 2.1562 1.5469 0.27734 1.6172h-8.3555c-2.0508 0.03125-2.0586 3.0898 0 3.125z"/>
 <path d="m92.98 28.406c-1.75-1.043-6.2148 0.36719-4.4883 2.8672 0.57031 0.64453 1.5742 0.69531 2.2227 0.125 0.60938-0.45313 1.4414-0.24219 1.4688 0.6875-0.058594 0.51562-0.59375 0.93359-1.1914 0.93359h-8.3555c-2.0508 0.03125-2.0586 3.0898 0 3.125h8.3555c4.3516 0.082031 6.0703-5.8984 1.9922-7.7383z"/>
 <path d="m70.621 42.809h8.3555c0.86328 0 1.5625-0.69922 1.5625-1.5625 0-0.86328-0.69922-1.5625-1.5625-1.5625h-8.3555c-0.59766 0-1.1328-0.41797-1.1992-1.0781 0.078125-0.78125 0.92969-0.98438 1.5039-0.51172l2.0234-2.3828c-2.3516-2.2305-6.707-0.44531-6.6562 2.8359-0.0625 2.3398 1.9141 4.2734 4.3242 4.2617z"/>
 <path d="m18.93 34.582c0-0.86328-0.69922-1.5625-1.5625-1.5625h-8.3555c-0.59766 0-1.1328-0.41797-1.1992-1.0781 0.078125-0.78125 0.92969-0.98438 1.5039-0.51172l2.0234-2.3828c-2.3516-2.2305-6.707-0.44531-6.6562 2.8359-0.0625 2.3398 1.9141 4.2734 4.3242 4.2617h8.3555c0.86328 0 1.5625-0.69922 1.5625-1.5625z"/>
 <path d="m70.156 80.812c-1.4062 0.63672-3.5312-1.3867-4.1328-2.0781-2.3438-3.6992-5.0938-4.625-6.5352-4.8477-2.6328-0.31641-4.2773-2.6602-4.3164-5.1484v-5.7578c0-0.89453-0.42969-1.7461-1.1523-2.2773-0.72266-0.53125-1.6641-0.68359-2.5195-0.41797l-4.6133 1.4492c-1.1836 0.37109-1.9805 1.457-1.9805 2.6953v5.7617c-0.35938 3.1562-2.3281 3.4297-2.6016 3.4492-4.332-0.17188-6.8359 3.0156-7.7109 5.0625-2.6016 2.043-4.3047 1.9805-4.418 1.9688-1.9922-0.23047-2.4492 2.7539-0.43359 3.0938 0.31641 0.046875 3.1875 0.37891 7.1523-2.9023 0.21484-0.17969 0.38281-0.42578 0.48047-0.6875 0.050781-0.14453 1.3008-3.582 4.9023-3.4062 1.7734 0.019531 5.4023-1.6016 5.7539-6.4883v-5.625l4.0156-1.2617v5.3516c0 2.9609 1.5742 5.75 4.1133 7.2891 2.8164 1.5664 4.543 0.15625 7.2773 4.457 1.4531 1.9688 5.0469 4.5938 8.0117 3.1758 1.8516-0.87891 0.60547-3.6641-1.2852-2.8477z"/>
 <path d="m80.988 74.086c-3.5547-0.18359-3.8047-4.125-3.4062-6.2539 0.19922-1.3281-0.57812-2.6094-1.8516-3.0547l-4.1094-1.4336c-1.668-0.63281-3.6328 0.64453-3.7227 2.4297 0 0-0.60547 7.668-0.60547 7.668-0.066407 0.85938 0.57422 1.6133 1.4336 1.6797 0.86328 0.058594 1.6133-0.57422 1.6797-1.4336l0.57031-7.2539 3.4766 1.2109c-0.71875 3.8477 0.95312 9.1758 6.1719 9.5469 2.0312 0.20703 2.4062-2.8281 0.36328-3.1016z"/>
 <path d="m31 75.086c0.65234-0.56641 0.72266-1.5508 0.16016-2.2031-1.6602-1.918-1.7188-5.7148-1.668-7.2578 0.027343-0.8125-0.33984-1.5938-0.98438-2.0898-0.64844-0.5-1.5039-0.66016-2.2891-0.42969l-4.9492 1.4609c-1.0781 0.31641-1.8281 1.3242-1.8281 2.4453v2.5781c0 1.5703-0.58594 3.0312-1.6094 4.0156-1.1367 1.0938-1.5938 1.4062-1.6641 1.4531-1.3945 0.71875-0.77734 2.9844 0.76953 2.9219 1.1992-0.14453 1.5547-0.81641 3.0586-2.1211 2.2891-2.0625 2.7578-5.3828 2.5703-8.418l3.7852-1.1211c-0.20312 1.6641 1.0664 11.008 4.6445 8.7617z"/>
 <path d="m23.035 42.355c0.75781 4.7734 5.3555 8.0117 10.129 7.1406 1.2695 4.25 6.8359 6.2305 10.465 3.6523l0.57422 2.9883c0.23047 1.2031 1.0977 2.1914 2.2578 2.5742 1.1523 0.38281 2.4453 0.11328 3.3516-0.71484l3.6797-3.3672c1.0508-0.96484 1.3867-2.4961 0.83594-3.8125l-0.92969-2.2109c5.0312-0.32031 9.3008-5.1641 7.2031-9.8906 2.6172-1.7734 3.7383-5.3047 2.5586-8.2773-1.1484-3.1719-4.8789-5.1562-8.1875-4.2969-1.1133-2.5742-3.8789-4.168-6.7891-3.707-2.0586-6.7227-10.68-9.0781-15.258-2.9883-1.7227 2.3594-2.0898 5.5938-0.90234 8.2773-1.8047 1.0312-3.0117 2.918-3.1719 5.0117-3.9414 1.2305-6.5625 5.543-5.8125 9.6211zm28.352 9.9688-3.6797 3.3672c-0.074219 0.066406-0.16016 0.085938-0.25781 0.054688-0.14453-0.046875-0.16797-0.16016-0.17578-0.19922-0.65625-2.5625-1.1172-8.7812-2.9648-10.73-1.3906-1.7109-3.207-2.5469-4.8945-2.9258 2.168-0.046875 4.0039-1.6094 3.9883-3.8203v-2.2148l0.90625 1.2109c1.1133 1.4844 3.0781 1.9961 4.6836 1.3359-0.054688 0.09375-0.10938 0.19141-0.16406 0.28906-1.0742 1.957-1.1562 4.3477-0.22656 6.5625l2.8516 6.7695c0.042969 0.10156 0.015625 0.21875-0.066406 0.29297zm-24.289-14.613c0.86328-1.1992 2.1445-1.9883 3.6055-2.2227 0.41016-0.066406 0.77734-0.28906 1.0195-0.62891 0.24219-0.33594 0.34375-0.75391 0.27734-1.1641-0.27344-1.7031 0.88672-3.332 2.5859-3.6289 0.53906-0.09375 0.99219-0.46484 1.1875-0.97656 0.19531-0.51172 0.11328-1.0898-0.22266-1.5234-1.4453-1.8047-1.4375-4.4648-0.085937-6.3008 2.6289-3.8125 8.9336-2.3477 9.5977 2.2344 0.13281 0.94141-0.12109 1.9609 0.83594 2.4844 0.95703 0.64844 1.8789-0.34375 2.8008-0.47266 1.7344-0.27734 3.3516 0.89453 3.6289 2.625-0.015625 0.62109 0.30078 1.2227 0.86719 1.5 0.46875 0.23438 1.0234 0.22266 1.4766-0.039063 1.9766-1.2383 4.8047-0.17969 5.5664 1.9414 0.8125 2.0078-0.30859 4.3867-2.3281 5.0781-0.46875 0.16797-0.83203 0.55469-0.97266 1.0312-0.36328 1.1758 0.99609 1.9844 1.0234 3.1055 0.28516 3.4414-2.9883 4.7109-5.8398 4.8047l-0.64062-1.5195c-1.3008-2.7578 0.80469-5.9883 3.3867-6.5977 0.65625-0.16406 1.1328-0.73438 1.1758-1.4102s-0.35156-1.3008-0.98047-1.5547c-0.15234-0.0625-3.7266-1.4453-7.1484 0.97266-0.32031 0.23047-0.82812 0.11328-1.1055-0.25781l-3.7188-4.9648c-0.83594-1.1953-2.8633-0.52344-2.8125 0.9375v6.9062c0 0.34766-0.27344 0.61719-0.64844 0.64453-1.5547 0.11328-3.8594 0.83594-6 3.6523-0.875 1.0781 0.1875 2.793 1.5469 2.4805 0.042969-0.011718 4.4648-0.82422 6.7109 1.9414 0.55469 0.64063 0.90625 1.7578 1.0586 2.7656-0.59375 0.82812-1.4648 1.4062-2.4805 1.5742-2.1875 0.42578-4.5312-1.4023-4.4883-3.6523 0.03125-1.0781-1.1758-1.8828-2.1602-1.4453-5.0898 2.3086-10.016-3.8477-6.7188-8.3203z"/>
<text x="0.0" y="117.5" font-size="5.0" font-weight="bold" font-family="Arbeit Regular, Helvetica, Arial-Unicode, Arial, Sans-serif" fill="#000000">Created by sentya irma</text><text x="0.0" y="122.5" font-size="5.0" font-weight="bold" font-family="Arbeit Regular, Helvetica, Arial-Unicode, Arial, Sans-serif" fill="#000000">from Noun Project</text></svg>